<?xml version="1.0" encoding="UTF-8" standalone="no" ?>
<!DOCTYPE svg PUBLIC "-//W3C//DTD SVG 1.1//EN" "http://www.w3.org/Graphics/SVG/1.1/DTD/svg11.dtd">
<svg xmlns="http://www.w3.org/2000/svg" xmlns:xlink="http://www.w3.org/1999/xlink" version="1.1" width="401" height="480" viewBox="0 0 401 480" xml:space="preserve">
<desc>Created with Fabric.js 3.6.3</desc>
<defs>
</defs>
<g transform="matrix(1 0 0 1 200.31 246.4)"  >
<path style="stroke: none; stroke-width: 1; stroke-dasharray: none; stroke-linecap: butt; stroke-dashoffset: 0; stroke-linejoin: miter; stroke-miterlimit: 4; fill: rgb(0,0,0); fill-rule: nonzero; opacity: 1;"  transform=" translate(-240.31, -246.4)" d="M 317.112 314.4 c -22.4 22.4 -19.6 67.6 -19.6 67.6 h -113.6 c 0 0 2.4 -45.2 -19.6 -67.6 c -24.4 -21.6 -40 -52.8 -40 -87.6 c 0 -64 52 -116 116 -116 s 116 52 116 116 C 356.312 261.6 341.112 292.8 317.112 314.4 L 317.112 314.4 z" stroke-linecap="round" />
</g>
<g transform="matrix(1 0 0 1 200.31 246.2)"  >
<path style="stroke: none; stroke-width: 1; stroke-dasharray: none; stroke-linecap: butt; stroke-dashoffset: 0; stroke-linejoin: miter; stroke-miterlimit: 4; fill: rgb(27,27,27); fill-rule: nonzero; opacity: 1;"  transform=" translate(-240.31, -246.2)" d="M 323.112 318.4 c 26 -23.6 40.8 -56.8 40.8 -91.6 c 0 -68 -55.6 -123.6 -123.6 -123.6 s -123.6 55.6 -123.6 123.6 c 0 35.6 15.6 69.6 42 92.8 c 19.6 19.6 17.6 61.2 17.6 61.6 c 0 2 0.8 4 2 5.6 c 1.6 1.6 3.6 2.4 5.6 2.4 h 113.2 c 2 0 4 -0.8 5.6 -2.4 s 2 -3.6 2 -5.6 c 0 -0.4 -2 -42 17.6 -61.6 C 322.712 319.2 323.112 318.8 323.112 318.4 z M 311.912 308.4 c -0.8 0.4 -1.2 1.2 -1.6 2 c -17.6 18.8 -20.4 49.6 -20.8 64 h -98 c -0.4 -14.8 -3.6 -46.8 -22.4 -65.6 c -23.6 -20.8 -37.2 -50.4 -37.2 -81.6 c 0 -60 48.8 -108.4 108.4 -108.4 c 60 0 108.4 48.8 108.4 108.4 C 348.712 258 335.512 288 311.912 308.4 z" stroke-linecap="round" />
</g>
<g transform="matrix(1 0 0 1 200.51 417.6)"  >
<path style="stroke: none; stroke-width: 1; stroke-dasharray: none; stroke-linecap: butt; stroke-dashoffset: 0; stroke-linejoin: miter; stroke-miterlimit: 4; fill: rgb(229,229,229); fill-rule: nonzero; opacity: 1;"  transform=" translate(-240.51, -417.6)" d="M 300.712 417.6 c 0 6 -4.8 10.8 -10.8 10.8 h -98.8 c -6 0 -10.8 -4.8 -10.8 -10.8 l 0 0 c 0 -6 4.8 -10.8 10.8 -10.8 h 98.4 C 295.512 406.8 300.712 411.6 300.712 417.6 L 300.712 417.6 z" stroke-linecap="round" />
</g>
<g transform="matrix(1 0 0 1 200.51 462.4)"  >
<path style="stroke: none; stroke-width: 1; stroke-dasharray: none; stroke-linecap: butt; stroke-dashoffset: 0; stroke-linejoin: miter; stroke-miterlimit: 4; fill: rgb(229,229,229); fill-rule: nonzero; opacity: 1;"  transform=" translate(-240.51, -462.4)" d="M 285.912 462.4 c 0 6 -4.8 10.8 -10.8 10.8 h -69.2 c -6 0 -10.8 -4.8 -10.8 -10.8 l 0 0 c 0 -6 4.8 -10.8 10.8 -10.8 h 69.2 C 281.112 451.6 285.912 456.4 285.912 462.4 L 285.912 462.4 z" stroke-linecap="round" />
</g>
<g transform="matrix(1 0 0 1 244.71 187.2)"  >
<path style="stroke: none; stroke-width: 1; stroke-dasharray: none; stroke-linecap: butt; stroke-dashoffset: 0; stroke-linejoin: miter; stroke-miterlimit: 4; fill: rgb(33,11,32); fill-rule: nonzero; opacity: 1;"  transform=" translate(-284.71, -187.2)" d="M 240.312 135.2 c -4 0 -7.6 3.2 -7.6 7.6 c 0 4 3.2 7.6 7.6 7.6 c 44.8 0 81.2 36.4 81.2 81.2 c 0 4 3.2 7.6 7.6 7.6 c 4 0 7.6 -3.2 7.6 -7.6 C 336.712 178.4 293.512 135.2 240.312 135.2 z" stroke-linecap="round" />
</g>
<g transform="matrix(1 0 0 1 200.51 417.6)"  >
<path style="stroke: none; stroke-width: 1; stroke-dasharray: none; stroke-linecap: butt; stroke-dashoffset: 0; stroke-linejoin: miter; stroke-miterlimit: 4; fill: rgb(33,11,32); fill-rule: nonzero; opacity: 1;"  transform=" translate(-240.51, -417.6)" d="M 308.312 417.6 c 0 -10.4 -8.4 -18.4 -18.4 -18.4 h -98.8 c -10.4 0 -18.4 8.4 -18.4 18.4 c 0 10.4 8.4 18.4 18.4 18.4 h 98.4 C 299.912 436 308.312 428 308.312 417.6 z M 289.512 420.8 h -98.4 c -2 0 -3.2 -1.6 -3.2 -3.2 c 0 -2 1.6 -3.2 3.2 -3.2 h 98.4 c 2 0 3.2 1.6 3.2 3.2 C 293.112 419.6 291.512 420.8 289.512 420.8 z" stroke-linecap="round" />
</g>
<g transform="matrix(1 0 0 1 200.51 462.4)"  >
<path style="stroke: none; stroke-width: 1; stroke-dasharray: none; stroke-linecap: butt; stroke-dashoffset: 0; stroke-linejoin: miter; stroke-miterlimit: 4; fill: rgb(33,11,32); fill-rule: nonzero; opacity: 1;"  transform=" translate(-240.51, -462.4)" d="M 275.112 444 h -69.2 c -10.4 0 -18.4 8.4 -18.4 18.4 c 0 10.4 8.4 18.4 18.4 18.4 h 69.2 c 10.4 0 18.4 -8.4 18.4 -18.4 C 293.512 452.4 285.112 444 275.112 444 z M 275.112 465.6 h -69.2 c -2 0 -3.2 -1.6 -3.2 -3.2 c 0 -2 1.6 -3.2 3.2 -3.2 h 69.2 c 2 0 3.2 1.6 3.2 3.2 C 278.312 464.4 277.112 465.6 275.112 465.6 z" stroke-linecap="round" />
</g>
<g transform="matrix(1 0 0 1 200.31 246.4)"  >
<path style="stroke: none; stroke-width: 1; stroke-dasharray: none; stroke-linecap: butt; stroke-dashoffset: 0; stroke-linejoin: miter; stroke-miterlimit: 4; fill: rgb(255,213,23); fill-rule: nonzero; opacity: 1;"  transform=" translate(-240.31, -246.4)" d="M 317.112 314.4 c -22.4 22.4 -19.6 67.6 -19.6 67.6 h -113.6 c 0 0 2.4 -45.2 -19.6 -67.6 c -24.4 -21.6 -40 -52.8 -40 -87.6 c 0 -64 52 -116 116 -116 s 116 52 116 116 C 356.312 261.6 341.112 292.8 317.112 314.4 L 317.112 314.4 z" stroke-linecap="round" />
</g>
<g transform="matrix(1 0 0 1 200.51 417.6)"  >
<path style="stroke: none; stroke-width: 1; stroke-dasharray: none; stroke-linecap: butt; stroke-dashoffset: 0; stroke-linejoin: miter; stroke-miterlimit: 4; fill: rgb(229,229,229); fill-rule: nonzero; opacity: 1;"  transform=" translate(-240.51, -417.6)" d="M 300.712 417.6 c 0 6 -4.8 10.8 -10.8 10.8 h -98.8 c -6 0 -10.8 -4.8 -10.8 -10.8 l 0 0 c 0 -6 4.8 -10.8 10.8 -10.8 h 98.4 C 295.512 406.8 300.712 411.6 300.712 417.6 L 300.712 417.6 z" stroke-linecap="round" />
</g>
<g transform="matrix(1 0 0 1 200.51 462.4)"  >
<path style="stroke: none; stroke-width: 1; stroke-dasharray: none; stroke-linecap: butt; stroke-dashoffset: 0; stroke-linejoin: miter; stroke-miterlimit: 4; fill: rgb(229,229,229); fill-rule: nonzero; opacity: 1;"  transform=" translate(-240.51, -462.4)" d="M 285.912 462.4 c 0 6 -4.8 10.8 -10.8 10.8 h -69.2 c -6 0 -10.8 -4.8 -10.8 -10.8 l 0 0 c 0 -6 4.8 -10.8 10.8 -10.8 h 69.2 C 281.112 451.6 285.912 456.4 285.912 462.4 L 285.912 462.4 z" stroke-linecap="round" />
</g>
<g transform="matrix(1 0 0 1 200.31 246.2)"  >
<path style="stroke: none; stroke-width: 1; stroke-dasharray: none; stroke-linecap: butt; stroke-dashoffset: 0; stroke-linejoin: miter; stroke-miterlimit: 4; fill: rgb(27,27,27); fill-rule: nonzero; opacity: 1;"  transform=" translate(-240.31, -246.2)" d="M 323.112 318.4 c 26 -23.6 40.8 -56.8 40.8 -91.6 c 0 -68 -55.6 -123.6 -123.6 -123.6 s -123.6 55.6 -123.6 123.6 c 0 35.6 15.6 69.6 42 92.8 c 19.6 19.6 17.6 61.2 17.6 61.6 c 0 2 0.8 4 2 5.6 c 1.6 1.6 3.6 2.4 5.6 2.4 h 113.2 c 2 0 4 -0.8 5.6 -2.4 s 2 -3.6 2 -5.6 c 0 -0.4 -2 -42 17.6 -61.6 C 322.712 319.2 323.112 318.8 323.112 318.4 z M 311.912 308.4 c -0.8 0.4 -1.2 1.2 -1.6 2 c -17.6 18.8 -20.4 49.6 -20.8 64 h -98 c -0.4 -14.8 -3.6 -46.8 -22.4 -65.6 c -23.6 -20.8 -37.2 -50.4 -37.2 -81.6 c 0 -60 48.8 -108.4 108.4 -108.4 c 60 0 108.4 48.8 108.4 108.4 C 348.712 258 335.512 288 311.912 308.4 z" stroke-linecap="round" />
</g>
<g transform="matrix(1 0 0 1 244.71 187.2)"  >
<path style="stroke: none; stroke-width: 1; stroke-dasharray: none; stroke-linecap: butt; stroke-dashoffset: 0; stroke-linejoin: miter; stroke-miterlimit: 4; fill: rgb(27,27,27); fill-rule: nonzero; opacity: 1;"  transform=" translate(-284.71, -187.2)" d="M 240.312 135.2 c -4 0 -7.6 3.2 -7.6 7.6 c 0 4 3.2 7.6 7.6 7.6 c 44.8 0 81.2 36.4 81.2 81.2 c 0 4 3.2 7.6 7.6 7.6 c 4 0 7.6 -3.2 7.6 -7.6 C 336.712 178.4 293.512 135.2 240.312 135.2 z" stroke-linecap="round" />
</g>
<g transform="matrix(1 0 0 1 200.51 417.6)"  >
<path style="stroke: none; stroke-width: 1; stroke-dasharray: none; stroke-linecap: butt; stroke-dashoffset: 0; stroke-linejoin: miter; stroke-miterlimit: 4; fill: rgb(27,27,27); fill-rule: nonzero; opacity: 1;"  transform=" translate(-240.51, -417.6)" d="M 308.312 417.6 c 0 -10.4 -8.4 -18.4 -18.4 -18.4 h -98.8 c -10.4 0 -18.4 8.4 -18.4 18.4 c 0 10.4 8.4 18.4 18.4 18.4 h 98.4 C 299.912 436 308.312 428 308.312 417.6 z M 289.512 420.8 h -98.4 c -2 0 -3.2 -1.6 -3.2 -3.2 c 0 -2 1.6 -3.2 3.2 -3.2 h 98.4 c 2 0 3.2 1.6 3.2 3.2 C 293.112 419.6 291.512 420.8 289.512 420.8 z" stroke-linecap="round" />
</g>
<g transform="matrix(1 0 0 1 200.51 462.4)"  >
<path style="stroke: none; stroke-width: 1; stroke-dasharray: none; stroke-linecap: butt; stroke-dashoffset: 0; stroke-linejoin: miter; stroke-miterlimit: 4; fill: rgb(27,27,27); fill-rule: nonzero; opacity: 1;"  transform=" translate(-240.51, -462.4)" d="M 275.112 444 h -69.2 c -10.4 0 -18.4 8.4 -18.4 18.4 c 0 10.4 8.4 18.4 18.4 18.4 h 69.2 c 10.4 0 18.4 -8.4 18.4 -18.4 C 293.512 452.4 285.112 444 275.112 444 z M 275.112 465.6 h -69.2 c -2 0 -3.2 -1.6 -3.2 -3.2 c 0 -2 1.6 -3.2 3.2 -3.2 h 69.2 c 2 0 3.2 1.6 3.2 3.2 C 278.312 464.4 277.112 465.6 275.112 465.6 z" stroke-linecap="round" />
</g>
<g transform="matrix(1 0 0 1 200.31 33.4)"  >
<path style="stroke: none; stroke-width: 1; stroke-dasharray: none; stroke-linecap: butt; stroke-dashoffset: 0; stroke-linejoin: miter; stroke-miterlimit: 4; fill: rgb(27,27,27); fill-rule: nonzero; opacity: 1;"  transform=" translate(-240.31, -33.4)" d="M 247.912 58.8 V 7.6 c 0 -4 -3.2 -7.6 -7.6 -7.6 c -4 0 -7.6 3.2 -7.6 7.6 v 51.6 c 0 4 3.2 7.6 7.6 7.6 C 244.712 66.4 247.912 63.2 247.912 58.8 z" stroke-linecap="round" />
</g>
<g transform="matrix(1 0 0 1 307.91 65.56)"  >
<path style="stroke: none; stroke-width: 1; stroke-dasharray: none; stroke-linecap: butt; stroke-dashoffset: 0; stroke-linejoin: miter; stroke-miterlimit: 4; fill: rgb(27,27,27); fill-rule: nonzero; opacity: 1;"  transform=" translate(-347.91, -65.57)" d="M 366.312 38 c -3.6 -2.4 -8 -1.2 -10.4 2 l -28.4 42.8 c -2.4 3.6 -1.2 8 2 10.4 c 1.2 0.8 2.8 1.2 4 1.2 c 2.4 0 4.8 -1.2 6.4 -3.2 l 28.4 -42.8 C 370.712 45.2 369.512 40.4 366.312 38 z" stroke-linecap="round" />
</g>
<g transform="matrix(1 0 0 1 96.11 63.67)"  >
<path style="stroke: none; stroke-width: 1; stroke-dasharray: none; stroke-linecap: butt; stroke-dashoffset: 0; stroke-linejoin: miter; stroke-miterlimit: 4; fill: rgb(27,27,27); fill-rule: nonzero; opacity: 1;"  transform=" translate(-136.11, -63.66)" d="M 149.912 92.8 c 1.2 0 2.8 -0.4 4 -1.2 c 3.6 -2.4 4.4 -6.8 2.4 -10.4 l -27.6 -43.2 c -2.4 -3.6 -6.8 -4.4 -10.4 -2.4 c -3.6 2.4 -4.4 6.8 -2.4 10.4 l 27.6 43.2 C 145.112 91.6 147.512 92.8 149.912 92.8 z" stroke-linecap="round" />
</g>
<g transform="matrix(1 0 0 1 30.24 134.13)"  >
<path style="stroke: none; stroke-width: 1; stroke-dasharray: none; stroke-linecap: butt; stroke-dashoffset: 0; stroke-linejoin: miter; stroke-miterlimit: 4; fill: rgb(27,27,27); fill-rule: nonzero; opacity: 1;"  transform=" translate(-70.24, -134.12)" d="M 43.912 128.8 l 45.2 24.4 c 1.2 0.8 2.4 0.8 3.6 0.8 c 2.8 0 5.2 -1.6 6.8 -4 c 2 -3.6 0.8 -8.4 -3.2 -10.4 l -45.2 -24.4 c -3.6 -2 -8.4 -0.8 -10.4 3.2 C 39.112 122.4 40.312 126.8 43.912 128.8 z" stroke-linecap="round" />
</g>
<g transform="matrix(1 0 0 1 370.51 134.57)"  >
<path style="stroke: none; stroke-width: 1; stroke-dasharray: none; stroke-linecap: butt; stroke-dashoffset: 0; stroke-linejoin: miter; stroke-miterlimit: 4; fill: rgb(27,27,27); fill-rule: nonzero; opacity: 1;"  transform=" translate(-410.51, -134.56)" d="M 387.912 154.4 c 1.2 0 2.4 -0.4 3.6 -0.8 l 45.2 -24.4 c 3.6 -2 5.2 -6.4 3.2 -10.4 c -2 -3.6 -6.4 -5.2 -10.4 -3.2 l -45.2 24.4 c -3.6 2 -5.2 6.4 -3.2 10.4 C 382.312 152.8 385.112 154.4 387.912 154.4 z" stroke-linecap="round" />
</g>
</svg>