<?xml version="1.0" encoding="UTF-8" standalone="no" ?>
<!DOCTYPE svg PUBLIC "-//W3C//DTD SVG 1.1//EN" "http://www.w3.org/Graphics/SVG/1.1/DTD/svg11.dtd">
<svg xmlns="http://www.w3.org/2000/svg" xmlns:xlink="http://www.w3.org/1999/xlink" version="1.1" width="511" height="447" viewBox="0 0 511 447" xml:space="preserve">
<desc>Created with Fabric.js 3.6.3</desc>
<defs>
</defs>
<rect x="0" y="0" width="100%" height="100%" fill="rgba(255, 255, 255, 0)"></rect>
<g transform="matrix(1 0 0 1 256 152)"  >
<path style="stroke: rgb(255,255,255); stroke-opacity: 0; stroke-width: 1; stroke-dasharray: none; stroke-linecap: butt; stroke-dashoffset: 0; stroke-linejoin: miter; stroke-miterlimit: 4; fill: rgb(255,255,255); fill-rule: nonzero; opacity: 1;"  transform=" translate(-256, -184)" d="M 320 132.219 V 64 c 0 -17.672 -14.328 -32 -32 -32 h -64 c -17.672 0 -32 14.328 -32 32 v 68.219 c -28.969 20.266 -48 53.82 -48 91.781 c 0 61.758 50.25 112 112 112 s 112 -50.242 112 -112 C 368 186.039 348.969 152.484 320 132.219 z" stroke-linecap="round" />
</g>
<g transform="matrix(1 0 0 1 456 192)"  >
<path style="stroke: rgb(255,255,255); stroke-width: 1; stroke-dasharray: none; stroke-linecap: butt; stroke-dashoffset: 0; stroke-linejoin: miter; stroke-miterlimit: 4; fill: rgb(255,255,255); fill-rule: nonzero; opacity: 1;"  transform=" translate(-456, -224)" d="M 480 192 h -48 c -17.672 0 -32 14.328 -32 32 s 14.328 32 32 32 h 48 c 17.672 0 32 -14.328 32 -32 S 497.672 192 480 192 z" stroke-linecap="round" />
</g>
<g transform="matrix(1 0 0 1 56 192)"  >
<path style="stroke: rgb(255,255,255); stroke-width: 1; stroke-dasharray: none; stroke-linecap: butt; stroke-dashoffset: 0; stroke-linejoin: miter; stroke-miterlimit: 4; fill: rgb(255,255,255); fill-rule: nonzero; opacity: 1;"  transform=" translate(-56, -224)" d="M 112 224 c 0 -17.672 -14.328 -32 -32 -32 H 32 c -17.672 0 -32 14.328 -32 32 s 14.328 32 32 32 h 48 C 97.672 256 112 241.672 112 224 z" stroke-linecap="round" />
</g>
<g transform="matrix(1 0 0 1 397.42 50.58)"  >
<path style="stroke: rgb(255,255,255); stroke-width: 1; stroke-dasharray: none; stroke-linecap: butt; stroke-dashoffset: 0; stroke-linejoin: miter; stroke-miterlimit: 4; fill: rgb(255,255,255); fill-rule: nonzero; opacity: 1;"  transform=" translate(-397.42, -82.58)" d="M 380.453 131.547 c 8.188 0 16.375 -3.125 22.625 -9.375 l 33.938 -33.938 c 12.5 -12.492 12.5 -32.758 0 -45.25 c -12.5 -12.5 -32.75 -12.5 -45.25 0 l -33.938 33.937 c -12.5 12.492 -12.5 32.758 0 45.25 C 364.078 128.422 372.266 131.547 380.453 131.547 z" stroke-linecap="round" />
</g>
<g transform="matrix(1 0 0 1 114.58 333.42)"  >
<path style="stroke: rgb(255,255,255); stroke-width: 1; stroke-dasharray: none; stroke-linecap: butt; stroke-dashoffset: 0; stroke-linejoin: miter; stroke-miterlimit: 4; fill: rgb(255,255,255); fill-rule: nonzero; opacity: 1;"  transform=" translate(-114.58, -365.42)" d="M 108.922 325.828 l -33.938 33.938 c -12.5 12.492 -12.5 32.758 0 45.25 c 6.25 6.25 14.438 9.375 22.625 9.375 s 16.375 -3.125 22.625 -9.375 l 33.937 -33.938 c 12.5 -12.492 12.5 -32.758 0 -45.25 C 141.672 313.328 121.422 313.328 108.922 325.828 z" stroke-linecap="round" />
</g>
<g transform="matrix(1 0 0 1 397.42 333.42)"  >
<path style="stroke: rgb(255,255,255); stroke-width: 1; stroke-dasharray: none; stroke-linecap: butt; stroke-dashoffset: 0; stroke-linejoin: miter; stroke-miterlimit: 4; fill: rgb(255,255,255); fill-rule: nonzero; opacity: 1;"  transform=" translate(-397.42, -365.42)" d="M 403.078 325.828 c -12.5 -12.5 -32.75 -12.5 -45.25 0 c -12.5 12.492 -12.5 32.758 0 45.25 l 33.938 33.938 c 6.25 6.25 14.438 9.375 22.625 9.375 s 16.375 -3.125 22.625 -9.375 c 12.5 -12.492 12.5 -32.758 0 -45.25 L 403.078 325.828 z" stroke-linecap="round" />
</g>
<g transform="matrix(1 0 0 1 114.58 50.58)"  >
<path style="stroke: rgb(255,255,255); stroke-width: 1; stroke-dasharray: none; stroke-linecap: butt; stroke-dashoffset: 0; stroke-linejoin: miter; stroke-miterlimit: 4; fill: rgb(255,255,255); fill-rule: nonzero; opacity: 1;"  transform=" translate(-114.58, -82.58)" d="M 108.922 122.172 c 6.25 6.25 14.438 9.375 22.625 9.375 s 16.375 -3.125 22.625 -9.375 c 12.5 -12.492 12.5 -32.758 0 -45.25 l -33.937 -33.937 c -12.5 -12.5 -32.75 -12.5 -45.25 0 c -12.5 12.492 -12.5 32.758 0 45.25 L 108.922 122.172 z" stroke-linecap="round" />
</g>
<g transform="matrix(1 0 0 1 256 392)"  >
<path style="stroke: rgb(255,255,255); stroke-width: 1; stroke-dasharray: none; stroke-linecap: butt; stroke-dashoffset: 0; stroke-linejoin: miter; stroke-miterlimit: 4; fill: rgb(255,255,255); fill-rule: nonzero; opacity: 1;"  transform=" translate(-256, -424)" d="M 256 368 c -17.672 0 -32 14.328 -32 32 v 48 c 0 17.672 14.328 32 32 32 c 17.672 0 32 -14.328 32 -32 v -48 C 288 382.328 273.672 368 256 368 z" stroke-linecap="round" />
</g>
</svg>